<?xml version="1.0" encoding="UTF-8"?>
<svg width="322px" height="57px" viewBox="0 0 322 57" version="1.1" xmlns="http://www.w3.org/2000/svg" xmlns:xlink="http://www.w3.org/1999/xlink">
    <!-- Generator: Sketch 45.1 (43504) - http://www.bohemiancoding.com/sketch -->
    <title>Desktop HD Copy@2x</title>
    <desc>Created with Sketch.</desc>
    <defs></defs>
    <g id="Page-1" stroke="none" stroke-width="1" fill="none" fill-rule="evenodd">
        <g id="Desktop-HD-Copy" fill="#000000">
            <path d="M48.8593011,45.5050505 L48.8593011,29.1245791 L65.1223022,29.1245791 L65.1223022,27.4276094 L48.8593011,27.4276094 L48.8593011,13.2154882 L66.5344296,13.2154882 L66.5344296,11.4949495 L47,11.4949495 L47,45.5050505 L48.8593011,45.5050505 Z M71.3121274,11.4949495 L82.3502569,11.4949495 C85.6452374,11.4949495 88.2890274,12.4180604 90.2817061,14.2643098 C92.2743847,16.1105592 93.2707091,18.5734975 93.2707091,21.6531987 C93.2707091,24.717187 92.2743847,27.1722691 90.2817061,29.0185185 C88.2890274,30.8647679 85.6452374,31.7878788 82.3502569,31.7878788 L73.1714286,31.7878788 L73.1714286,45.5050505 L71.3121274,45.5050505 L71.3121274,11.4949495 Z M73.1714286,13.1919192 L73.1714286,30.0909091 L82.044296,30.0909091 C84.9156361,30.0909091 87.1867851,29.3367079 88.8578109,27.8282828 C90.5288367,26.3198578 91.3643371,24.261517 91.3643371,21.6531987 C91.3643371,19.0291676 90.5288367,16.9629705 88.8578109,15.4545455 C87.1867851,13.9461204 84.9156361,13.1919192 82.044296,13.1919192 L73.1714286,13.1919192 Z M109.886742,45.5050505 L122.831244,11.4949495 L120.854265,11.4949495 L109.01593,43.030303 L108.898253,43.030303 L97.0599178,11.4949495 L95.0594039,11.4949495 L108.003905,45.5050505 L109.886742,45.5050505 Z M138.34111,32.8013468 L138.34111,31.0808081 L122.90185,31.0808081 L122.90185,32.8013468 L138.34111,32.8013468 Z M141.659609,36.4309764 C141.800823,39.2435606 143.005042,41.5415175 145.272302,43.3249158 C147.539563,45.1083142 150.414782,46 153.898047,46 C157.459764,46 160.323216,45.1083142 162.488489,43.3249158 C164.653762,41.5415175 165.736382,39.2435606 165.736382,36.4309764 C165.736382,34.1683389 164.971488,32.3613985 163.441675,31.010101 C161.911863,29.6588036 159.507348,28.5746393 156.228058,27.7575758 L152.438849,26.7912458 C149.708722,26.0998843 147.700383,25.2317673 146.413772,24.1868687 C145.12716,23.1419701 144.483864,21.7710523 144.483864,20.0740741 C144.483864,17.9371386 145.37428,16.1773358 147.155139,14.7946128 C148.935997,13.4118898 151.10516,12.7205387 153.662693,12.7205387 C156.345748,12.7205387 158.577672,13.3843929 160.35853,14.7121212 C162.139389,16.0398495 163.10041,17.7250178 163.241624,19.7676768 L165.100925,19.7676768 C164.991092,17.2693478 163.865324,15.1835101 161.723587,13.510101 C159.58185,11.836692 156.910602,11 153.709764,11 C150.618758,11 147.990658,11.8602608 145.825385,13.5808081 C143.660113,15.3013554 142.577492,17.4814683 142.577492,20.1212121 C142.577492,24.1908172 145.621381,26.995503 151.70925,28.5353535 L155.733813,29.5252525 C158.573772,30.2480395 160.633104,31.159366 161.911871,32.2592593 C163.190637,33.3591525 163.83001,34.7968486 163.83001,36.5723906 C163.83001,38.7878899 162.919982,40.6262553 161.099897,42.0875421 C159.279813,43.5488289 156.926291,44.2794613 154.03926,44.2794613 C151.089468,44.2794613 148.63396,43.5488289 146.672662,42.0875421 C144.711364,40.6262553 143.660124,38.7407523 143.518911,36.4309764 L141.659609,36.4309764 Z M170.090442,11.4949495 L181.128571,11.4949495 C184.423552,11.4949495 187.067342,12.4180604 189.060021,14.2643098 C191.052699,16.1105592 192.049024,18.5734975 192.049024,21.6531987 C192.049024,24.717187 191.052699,27.1722691 189.060021,29.0185185 C187.067342,30.8647679 184.423552,31.7878788 181.128571,31.7878788 L171.949743,31.7878788 L171.949743,45.5050505 L170.090442,45.5050505 L170.090442,11.4949495 Z M171.949743,13.1919192 L171.949743,30.0909091 L180.82261,30.0909091 C183.693951,30.0909091 185.9651,29.3367079 187.636125,27.8282828 C189.307151,26.3198578 190.142652,24.261517 190.142652,21.6531987 C190.142652,19.0291676 189.307151,16.9629705 187.636125,15.4545455 C185.9651,13.9461204 183.693951,13.1919192 180.82261,13.1919192 L171.949743,13.1919192 Z M210.053649,11 C214.682312,11 218.361651,12.5751807 221.091778,15.7255892 C223.821905,18.8759978 225.186948,23.130164 225.186948,28.4882155 C225.186948,33.8619797 223.825827,38.1240022 221.103546,41.2744108 C218.381264,44.4248193 214.698002,46 210.053649,46 C205.424985,46 201.745646,44.4248193 199.015519,41.2744108 C196.285392,38.1240022 194.920349,33.8619797 194.920349,28.4882155 C194.920349,23.130164 196.285392,18.8759978 199.015519,15.7255892 C201.745646,12.5751807 205.424985,11 210.053649,11 Z M210.053649,12.7441077 C206.00553,12.7441077 202.789049,14.1660913 200.404111,17.010101 C198.019173,19.8541107 196.826721,23.6801106 196.826721,28.4882155 C196.826721,33.3120331 198.023095,37.1458893 200.415879,39.989899 C202.808662,42.8339087 206.02122,44.2558923 210.053649,44.2558923 C214.101767,44.2558923 217.318248,42.8339087 219.703186,39.989899 C222.088124,37.1458893 223.280576,33.3120331 223.280576,28.4882155 C223.280576,23.6801106 222.088124,19.8541107 219.703186,17.010101 C217.318248,14.1660913 214.101767,12.7441077 210.053649,12.7441077 Z M238.672765,45.5050505 L236.813464,45.5050505 L236.813464,13.2154882 L224.857451,13.2154882 L224.857451,11.4949495 L250.652312,11.4949495 L250.652312,13.2154882 L238.672765,13.2154882 L238.672765,45.5050505 Z M251.923227,36.4309764 C252.064441,39.2435606 253.268659,41.5415175 255.53592,43.3249158 C257.80318,45.1083142 260.6784,46 264.161665,46 C267.723382,46 270.586834,45.1083142 272.752107,43.3249158 C274.91738,41.5415175 276,39.2435606 276,36.4309764 C276,34.1683389 275.235105,32.3613985 273.705293,31.010101 C272.175481,29.6588036 269.770965,28.5746393 266.491675,27.7575758 L262.702467,26.7912458 C259.97234,26.0998843 257.964001,25.2317673 256.67739,24.1868687 C255.390778,23.1419701 254.747482,21.7710523 254.747482,20.0740741 C254.747482,17.9371386 255.637898,16.1773358 257.418756,14.7946128 C259.199615,13.4118898 261.368778,12.7205387 263.92631,12.7205387 C266.609366,12.7205387 268.841289,13.3843929 270.622148,14.7121212 C272.403007,16.0398495 273.364028,17.7250178 273.505242,19.7676768 L275.364543,19.7676768 C275.25471,17.2693478 274.128942,15.1835101 271.987205,13.510101 C269.845467,11.836692 267.174219,11 263.973381,11 C260.882376,11 258.254276,11.8602608 256.089003,13.5808081 C253.92373,15.3013554 252.84111,17.4814683 252.84111,20.1212121 C252.84111,24.1908172 255.884999,26.995503 261.972867,28.5353535 L265.997431,29.5252525 C268.83739,30.2480395 270.896722,31.159366 272.175488,32.2592593 C273.454254,33.3591525 274.093628,34.7968486 274.093628,36.5723906 C274.093628,38.7878899 273.183599,40.6262553 271.363515,42.0875421 C269.54343,43.5488289 267.189908,44.2794613 264.302878,44.2794613 C261.353086,44.2794613 258.897577,43.5488289 256.93628,42.0875421 C254.974982,40.6262553 253.923742,38.7407523 253.782528,36.4309764 L251.923227,36.4309764 Z" id="FPV-SPOTS"></path>
        </g>
    </g>
</svg>