<?xml version="1.0" encoding="UTF-8"?>
<svg width="45px" height="45px" viewBox="0 0 45 45" version="1.1" xmlns="http://www.w3.org/2000/svg" xmlns:xlink="http://www.w3.org/1999/xlink">
    <!-- Generator: Sketch 45.1 (43504) - http://www.bohemiancoding.com/sketch -->
    <title>Flag</title>
    <desc>Created with Sketch.</desc>
    <defs>
        <path d="M12.733924,3.75107174 L35.800443,2.2133038 L35.800443,2.2133038 C37.4536275,2.1030915 38.8831432,3.35391767 38.9933555,5.00710224 C38.9977839,5.0735291 39,5.14008497 39,5.20665928 L39,21.1933407 L39,21.1933407 C39,22.7727323 37.7754505,24.0816366 36.199557,24.1866962 L13.266076,25.7155949 L13.266076,25.7155949 C11.0618299,25.8625447 9.15580911,24.1947764 9.00885937,21.9905303 C9.00295476,21.9019612 9,21.81322 9,21.7244543 L9,7.74221237 L9,7.74221237 C9,5.63635687 10.6327326,3.89115116 12.733924,3.75107174 Z" id="path-1"></path>
        <rect id="path-2" x="9" y="2" width="4" height="43"></rect>
    </defs>
    <g id="Page-1" stroke="none" stroke-width="1" fill="none" fill-rule="evenodd">
        <g id="Flag">
            <g id="Rectangle-2">
                <use fill="#FFFFFF" fill-rule="evenodd" xlink:href="#path-1"></use>
                <path stroke="#000000" stroke-width="1" d="M12.7671835,4.24996432 C10.928641,4.37253381 9.5,5.89958881 9.5,7.74221237 L9.5,21.7244543 C9.5,21.8021243 9.50258541,21.8797728 9.50775195,21.9572708 C9.63633297,23.8859862 11.3041012,25.3452834 13.2328165,25.2167024 L36.1662975,23.6878036 C37.4795421,23.600254 38.5,22.5095004 38.5,21.1933407 L38.5,5.20665928 C38.5,5.15118068 38.4981533,5.09571746 38.4944629,5.04036175 C38.4026193,3.66270793 37.2113563,2.62035279 35.8337025,2.71219638 L12.7671835,4.24996432 Z"></path>
            </g>
            <g id="Rectangle-2">
                <use fill="#FFFFFF" fill-rule="evenodd" xlink:href="#path-2"></use>
                <rect stroke="#000000" stroke-width="1" x="9.5" y="2.5" width="3" height="42"></rect>
            </g>
            <g id="hobby_vectors" transform="translate(19.000000, 6.000000)" fill-rule="nonzero" fill="#000000">
                <g id="Group-55">
                    <path d="M5.03193165,8.21972079 C5.03336794,8.56151021 5.35437947,8.86270395 5.71776164,8.86204918 C6.06319015,8.86139441 6.39497388,8.56020067 6.39928275,8.24329248 C6.40430978,7.89626491 6.09407045,7.61274993 5.71201647,7.61471424 C5.33929839,7.61667855 5.0312135,7.89037199 5.03193165,8.21972079 Z M6.45960707,9.24705335 C6.2104102,9.22348167 6.0531361,9.27258934 5.94972299,9.46181758 C5.7371516,9.85075037 5.49298176,10.2311712 5.33570766,10.6384375 C4.75616336,12.1430966 3.86207085,13.4709682 2.70154597,14.653481 C2.30153831,15.061402 1.88070441,15.4522991 1.4613068,15.8431962 C1.24801727,16.0415912 1.00815631,16.0520675 0.766140906,15.8726608 C0.718025085,15.8366485 0.664882237,15.8065292 0.615330122,15.7724812 C-0.0956350012,15.285333 -0.161704487,15.0168778 0.269183466,14.3084177 C0.932750915,13.2175726 1.55466586,12.1018462 2.28071206,11.0463586 C2.90190886,10.1440869 3.6408817,9.30860164 4.3360476,8.44888994 C4.56513637,8.16537497 4.58811706,8.00168272 4.35902829,7.70441759 C3.72131412,6.87744435 3.04194745,6.07469756 2.44588578,5.22349786 C1.68895927,4.14247425 1.1359864,2.96716389 0.756086854,1.72965049 C0.677808876,1.47625489 0.550696929,1.18815653 0.830774099,0.99107106 C1.17404817,0.748806531 1.5675925,0.603447814 2.020743,0.761901911 C2.4846657,0.924284623 2.68502859,1.32107464 2.96223318,1.64387575 C3.74142223,2.55073081 4.28936807,3.58395629 4.85383129,4.6060507 C5.33858024,5.48475069 5.80609367,6.37065314 6.30376926,7.24280545 C6.36265728,7.34625895 6.56517462,7.44643861 6.69515915,7.43989092 C7.32497371,7.40911677 7.95622456,7.36328294 8.58101209,7.28274636 C10.1903786,7.07583935 11.784664,7.09417289 13.366741,7.46870075 C13.7581309,7.56167795 14.1602929,7.61405947 14.552401,7.70507236 C14.9323005,7.79412094 15.0184781,7.9218009 14.9969337,8.27930477 C14.9502542,9.07550387 14.5696365,9.40092406 13.6863162,9.4382459 C12.7757063,9.47687727 11.8658146,9.53777078 10.6851816,9.60390245 C9.44996947,9.50175849 7.95335197,9.38651915 6.45960707,9.24705335 Z" id="Fill-47"></path>
                    <path d="M10.7024055,1.35036347 C9.20654407,0.358960764 7.53904995,0.0254762862 5.71428571,0.228769538 C6.1236189,-0.232817537 8.79577463,0.0150331397 10.3095893,0.873459781 C12.1027559,1.88992604 14.0129774,4.58495404 13.4808442,5.56521739 C13.1239344,3.755072 12.215502,2.35360174 10.7024055,1.35036347 Z" id="Fill-49"></path>
                    <path d="M7.14285714,2.23076179 C7.60379743,1.90243767 8.739318,2.18870374 9.29505674,2.56451277 C10.1152694,3.11872932 10.6284176,3.85474519 10.7142857,4.86956522 C10.1839639,3.14857697 9.06355618,2.19955743 7.14285714,2.23076179 Z" id="Fill-51"></path>
                </g>
            </g>
        </g>
    </g>
</svg>