<?xml version="1.0" encoding="UTF-8"?>
<svg width="322px" height="79px" viewBox="0 0 322 79" version="1.1" xmlns="http://www.w3.org/2000/svg" xmlns:xlink="http://www.w3.org/1999/xlink">
    <!-- Generator: Sketch 45.1 (43504) - http://www.bohemiancoding.com/sketch -->
    <title>Desktop HD Copy@2x</title>
    <desc>Created with Sketch.</desc>
    <defs></defs>
    <g id="Page-1" stroke="none" stroke-width="1" fill="none" fill-rule="evenodd">
        <g id="Desktop-HD-Copy" fill="#000000">
            <path d="M21.2958984,58 L21.2958984,37.6386719 L41.5400391,37.6386719 L41.5400391,35.5292969 L21.2958984,35.5292969 L21.2958984,17.8632812 L43.2978516,17.8632812 L43.2978516,15.7246094 L18.9814453,15.7246094 L18.9814453,58 L21.2958984,58 Z M49.2451172,15.7246094 L62.9853516,15.7246094 C67.0869346,15.7246094 70.3779173,16.8720588 72.8583984,19.1669922 C75.3388796,21.4619255 76.5791016,24.5234184 76.5791016,28.3515625 C76.5791016,32.1601753 75.3388796,35.2119026 72.8583984,37.5068359 C70.3779173,39.8017693 67.0869346,40.9492188 62.9853516,40.9492188 L51.5595703,40.9492188 L51.5595703,58 L49.2451172,58 L49.2451172,15.7246094 Z M51.5595703,17.8339844 L51.5595703,38.8398438 L62.6044922,38.8398438 C66.1787288,38.8398438 69.005849,37.9023531 71.0859375,36.0273438 C73.166026,34.1523344 74.2060547,31.5937662 74.2060547,28.3515625 C74.2060547,25.0898274 73.166026,22.5214937 71.0859375,20.6464844 C69.005849,18.771475 66.1787288,17.8339844 62.6044922,17.8339844 L51.5595703,17.8339844 Z M97.2626953,58 L113.375977,15.7246094 L110.915039,15.7246094 L96.1787109,54.9238281 L96.0322266,54.9238281 L81.2958984,15.7246094 L78.8056641,15.7246094 L94.9189453,58 L97.2626953,58 Z M132.682617,42.2089844 L132.682617,40.0703125 L113.463867,40.0703125 L113.463867,42.2089844 L132.682617,42.2089844 Z M136.813477,46.7207031 C136.989259,50.2168144 138.488267,53.0732311 141.310547,55.2900391 C144.132827,57.506847 147.711892,58.6152344 152.047852,58.6152344 C156.481467,58.6152344 160.045885,57.506847 162.741211,55.2900391 C165.436537,53.0732311 166.78418,50.2168144 166.78418,46.7207031 C166.78418,43.9081891 165.832041,41.6621178 163.927734,39.9824219 C162.023428,38.302726 159.030294,36.9550832 154.948242,35.9394531 L150.231445,34.7382812 C146.832991,33.878902 144.333016,32.7998112 142.731445,31.5009766 C141.129875,30.2021419 140.329102,28.4980574 140.329102,26.3886719 C140.329102,23.7324086 141.437489,21.5449305 143.654297,19.8261719 C145.871105,18.1074133 148.571273,17.2480469 151.754883,17.2480469 C155.094743,17.2480469 157.873036,18.0732339 160.089844,19.7236328 C162.306652,21.3740317 163.502929,23.4687373 163.678711,26.0078125 L165.993164,26.0078125 C165.856445,22.9023282 164.455091,20.3095807 161.789062,18.2294922 C159.123034,16.1494037 155.797871,15.109375 151.813477,15.109375 C147.965801,15.109375 144.694349,16.1787002 141.999023,18.3173828 C139.303697,20.4560654 137.956055,23.1659992 137.956055,26.4472656 C137.956055,31.5058847 141.745079,34.9921779 149.323242,36.90625 L154.333008,38.1367188 C157.868182,39.0351607 160.431633,40.1679619 162.023438,41.5351562 C163.615242,42.9023506 164.411133,44.6894421 164.411133,46.8964844 C164.411133,49.6504044 163.278332,51.9355378 161.012695,53.7519531 C158.747059,55.5683685 155.817401,56.4765625 152.223633,56.4765625 C148.551739,56.4765625 145.495129,55.5683685 143.053711,53.7519531 C140.612292,51.9355378 139.303712,49.5918112 139.12793,46.7207031 L136.813477,46.7207031 Z M172.204102,15.7246094 L185.944336,15.7246094 C190.045919,15.7246094 193.336902,16.8720588 195.817383,19.1669922 C198.297864,21.4619255 199.538086,24.5234184 199.538086,28.3515625 C199.538086,32.1601753 198.297864,35.2119026 195.817383,37.5068359 C193.336902,39.8017693 190.045919,40.9492188 185.944336,40.9492188 L174.518555,40.9492188 L174.518555,58 L172.204102,58 L172.204102,15.7246094 Z M174.518555,17.8339844 L174.518555,38.8398438 L185.563477,38.8398438 C189.137713,38.8398438 191.964833,37.9023531 194.044922,36.0273438 C196.12501,34.1523344 197.165039,31.5937662 197.165039,28.3515625 C197.165039,25.0898274 196.12501,22.5214937 194.044922,20.6464844 C191.964833,18.771475 189.137713,17.8339844 185.563477,17.8339844 L174.518555,17.8339844 Z M221.950195,15.109375 C227.711943,15.109375 232.291975,17.0673632 235.69043,20.9833984 C239.088884,24.8994336 240.788086,30.1874667 240.788086,36.8476562 C240.788086,43.5273771 239.093767,48.8251757 235.705078,52.7412109 C232.316389,56.6572461 227.731474,58.6152344 221.950195,58.6152344 C216.188448,58.6152344 211.608415,56.6572461 208.209961,52.7412109 C204.811506,48.8251757 203.112305,43.5273771 203.112305,36.8476562 C203.112305,30.1874667 204.811506,24.8994336 208.209961,20.9833984 C211.608415,17.0673632 216.188448,15.109375 221.950195,15.109375 Z M221.950195,17.2773438 C216.911108,17.2773438 212.907241,19.0449042 209.938477,22.5800781 C206.969712,26.1152521 205.485352,30.8710639 205.485352,36.8476562 C205.485352,42.84378 206.974594,47.6093573 209.953125,51.1445312 C212.931656,54.6797052 216.930639,56.4472656 221.950195,56.4472656 C226.989283,56.4472656 230.993149,54.6797052 233.961914,51.1445312 C236.930679,47.6093573 238.415039,42.84378 238.415039,36.8476562 C238.415039,30.8710639 236.930679,26.1152521 233.961914,22.5800781 C230.993149,19.0449042 226.989283,17.2773438 221.950195,17.2773438 Z M257.575195,58 L255.260742,58 L255.260742,17.8632812 L240.37793,17.8632812 L240.37793,15.7246094 L272.487305,15.7246094 L272.487305,17.8632812 L257.575195,17.8632812 L257.575195,58 Z M274.069336,46.7207031 C274.245118,50.2168144 275.744127,53.0732311 278.566406,55.2900391 C281.388686,57.506847 284.967752,58.6152344 289.303711,58.6152344 C293.737327,58.6152344 297.301744,57.506847 299.99707,55.2900391 C302.692396,53.0732311 304.040039,50.2168144 304.040039,46.7207031 C304.040039,43.9081891 303.0879,41.6621178 301.183594,39.9824219 C299.279287,38.302726 296.286153,36.9550832 292.204102,35.9394531 L287.487305,34.7382812 C284.08885,33.878902 281.588875,32.7998112 279.987305,31.5009766 C278.385734,30.2021419 277.584961,28.4980574 277.584961,26.3886719 C277.584961,23.7324086 278.693348,21.5449305 280.910156,19.8261719 C283.126964,18.1074133 285.827133,17.2480469 289.010742,17.2480469 C292.350603,17.2480469 295.128895,18.0732339 297.345703,19.7236328 C299.562511,21.3740317 300.758788,23.4687373 300.93457,26.0078125 L303.249023,26.0078125 C303.112304,22.9023282 301.710951,20.3095807 299.044922,18.2294922 C296.378893,16.1494037 293.053731,15.109375 289.069336,15.109375 C285.22166,15.109375 281.950209,16.1787002 279.254883,18.3173828 C276.559557,20.4560654 275.211914,23.1659992 275.211914,26.4472656 C275.211914,31.5058847 279.000939,34.9921779 286.579102,36.90625 L291.588867,38.1367188 C295.124041,39.0351607 297.687492,40.1679619 299.279297,41.5351562 C300.871102,42.9023506 301.666992,44.6894421 301.666992,46.8964844 C301.666992,49.6504044 300.534191,51.9355378 298.268555,53.7519531 C296.002918,55.5683685 293.07326,56.4765625 289.479492,56.4765625 C285.807599,56.4765625 282.750989,55.5683685 280.30957,53.7519531 C277.868152,51.9355378 276.559571,49.5918112 276.383789,46.7207031 L274.069336,46.7207031 Z" id="FPV-SPOTS"></path>
        </g>
    </g>
</svg>