<?xml version="1.0" encoding="UTF-8"?>
<svg width="45px" height="45px" viewBox="0 0 45 45" version="1.1" xmlns="http://www.w3.org/2000/svg" xmlns:xlink="http://www.w3.org/1999/xlink">
    <!-- Generator: Sketch 45.1 (43504) - http://www.bohemiancoding.com/sketch -->
    <title>Mobile</title>
    <desc>Created with Sketch.</desc>
    <defs></defs>
    <g id="Page-1" stroke="none" stroke-width="1" fill="none" fill-rule="evenodd">
        <g id="Mobile" fill-rule="nonzero" fill="#6D6F72">
            <g id="hobby_vectors" transform="translate(4.000000, 2.000000)">
                <g id="Group-55">
                    <path d="M14.0896406,19.5127052 C13.1702694,19.5177388 12.4103266,20.2190782 12.4120981,21.0630345 C12.4156409,21.9388699 13.2074694,22.7106789 14.103812,22.709001 C14.955869,22.7073232 15.7742689,21.9355142 15.7848975,21.123437 C15.7972975,20.2341788 15.0320405,19.5076717 14.0896406,19.5127052 M26.3567813,24.61 C23.3099247,24.3482561 19.6182682,24.0529553 15.9336974,23.6955742 C15.3190118,23.6351718 14.931069,23.7610102 14.6759834,24.2459076 C14.1516406,25.2425478 13.549355,26.2173761 13.1614122,27.260996 C11.7318696,31.1166851 9.52644144,34.5193559 6.66381338,37.549545 C5.67712784,38.5948427 4.63907089,39.5965165 3.60455679,40.5981903 C3.07844259,41.1065775 2.48678556,41.1334231 1.88981424,40.6736934 C1.77112854,40.5814119 1.64004285,40.504231 1.5178143,40.416983 C-0.23589967,39.1686659 -0.398871069,38.4807492 0.663985883,36.6653204 C2.30078559,33.8700297 3.83484246,31.0109808 5.62575642,28.3062938 C7.15804186,25.9942226 8.98084154,23.8532917 10.6955841,21.6502805 C11.2606697,20.9237733 11.3173554,20.504312 10.7522698,19.7425701 C9.1792415,17.6234511 7.50347037,15.5664125 6.03318492,13.3852133 C4.16609954,10.6150903 2.80209979,7.60335748 1.86501424,4.43222938 C1.67192856,3.78290315 1.35838576,3.0446511 2.04924278,2.53961959 C2.89598548,1.91881674 3.86672817,1.54633502 4.9844994,1.95237365 C6.12884205,2.36847935 6.62307053,3.38525375 7.30684184,4.21243161 C9.22884149,6.53624771 10.5804413,9.18388799 11.9727839,11.8030049 C13.1684979,14.0546736 14.3216977,16.3247987 15.5492975,18.559689 C15.6945546,18.8247886 16.1940974,19.0814989 16.5147259,19.0647205 C18.0682685,18.9858617 19.6253539,18.8684125 21.1664965,18.6620375 C25.1362672,18.1318383 29.0688379,18.178818 32.9712944,19.1385457 C33.9367228,19.3767997 34.9287226,19.5110274 35.8959224,19.7442479 C36.833008,19.9724349 37.0455794,20.2996148 36.9924365,21.2157185 C36.8772937,23.2559787 35.9384367,24.0898679 33.75958,24.1855051 C31.5134089,24.284498 29.2690093,24.4405376 26.3567813,24.61" id="Fill-47"></path>
                    <path d="M33.2527491,14.2608696 C32.3723716,9.622372 30.1315716,6.03110447 26.3992669,3.46030639 C22.7094754,0.919836958 18.5963232,0.0652829833 14.0952381,0.58622194 C15.1049266,-0.596594938 21.6962441,0.0385224204 25.4303202,2.23824069 C29.8534645,4.84293547 34.5653442,11.7489447 33.2527491,14.2608696" id="Fill-49"></path>
                    <path d="M26.4285714,12.4782609 C25.1204444,8.06822848 22.3567719,5.63636592 17.6190476,5.71632709 C18.7560337,4.87499652 21.5569844,5.60855334 22.9278066,6.57156396 C24.9509979,7.99174388 26.2167633,9.87778454 26.4285714,12.4782609" id="Fill-51"></path>
                </g>
            </g>
        </g>
    </g>
</svg>